<svg xmlns="http://www.w3.org/2000/svg" width="1547" height="1563"><g fill-rule="evenodd"><path fill="#006638" d="M1031.9 261.3h256V520l258.7 261.3-258.7 261.4v258.8h-256l-258.6 261.3-258.7-261.3h-256v-258.7L0 781.4l258.6-261.3V261.3h256L773.2 0zM323 1236.7h172.8l64.3 65 213.2 215.4 213.1-215.4 64.4-65h172.8V1062l64.3-65 213.2-215.5-213.2-215.4-64.3-65V326.4h-172.8l-64.4-65L773.3 45.9 495.8 326.4H323.1v174.7l-64.4 65L45.6 781.5l213 215.5 64.4 65zM773.4 137.9l637 643.5-637 643.6-637-643.6z"/><path fill="#F5A623" d="m45.4 781.3 277.5-280.4V326.3h172.7L773.2 45.8l277.4 280.5h172.8V501L1501 781.3l-277.5 280.5v174.6h-172.8l-277.5 280.4-277.5-280.4H322.9v-174.7S45.3 781.3 45.4 781.3m277.4 188.4C430.3 838.8 592.2 755.3 773 755.2c139.5 0 253.2-114.9 253.2-255.9 0-66.6-25.3-127.4-66.8-173.1L773 137.8 586.5 326.3 322.7 592.8 136.4 781.2s186.3 188.5 186.4 188.5M1223.4 593C1116 723.9 954 807.4 773.2 807.4c-139.6 0-253.4 115-253.4 256 0 15.8 1.4 31.6 4.3 47.2 2.9 15.5 7.3 30.8 13 45.6 5.7 14.7 12.7 28.9 21.1 42.4 8.3 13.4 17.8 26.1 28.5 37.8h-.1l186.6 188.5 186.5-188.5 263.7-266.6L1410 781.4z"/></g></svg>
